<svg width="24" height="24" viewBox="0 0 24 24" fill="none" xmlns="http://www.w3.org/2000/svg">
<path d="M23.5996 0H5.5996C5.3787 0 5.1996 0.1791 5.1996 0.399999V6.39999H5.9996V0.799998H23.1996V22.8C23.2034 23.0103 23.0411 23.1865 22.8312 23.2C22.7968 23.2 22.7624 23.1972 22.728 23.1964C22.6572 23.1944 22.5864 23.1928 22.5168 23.1856C22.5108 23.1856 22.5052 23.1856 22.4992 23.1832C21.1928 23.0404 20.1608 22.0094 20.0168 20.7032C20.0168 20.6976 20.0148 20.6916 20.014 20.686C20.0043 20.5909 19.9995 20.4955 19.9996 20.4V19.6C19.9996 19.3791 19.8205 19.2 19.5996 19.2H5.9996V12H5.1996V19.2H1.99961C1.77871 19.2 1.59961 19.3791 1.59961 19.6V20.4C1.60181 22.3873 3.21231 23.9978 5.1996 24H22.8396C23.4887 23.983 24.0046 23.4493 23.9996 22.8V0.399999C23.9996 0.1791 23.8205 0 23.5996 0ZM5.1996 23.2C3.65395 23.1982 2.40136 21.9456 2.39961 20.4V20H19.1996V20.4C19.2001 20.5319 19.2077 20.6637 19.2224 20.7948C19.226 20.8296 19.2328 20.8632 19.2376 20.8976C19.2508 20.9944 19.2668 21.0908 19.288 21.1856C19.2952 21.2188 19.3044 21.2516 19.3128 21.2848C19.3372 21.3812 19.3648 21.476 19.3968 21.5696C19.406 21.5964 19.4156 21.6228 19.4256 21.6496C19.462 21.7488 19.5032 21.8456 19.5484 21.9412C19.558 21.9608 19.5668 21.9812 19.5764 21.9992C19.6265 22.1005 19.6816 22.199 19.7416 22.2948C19.7496 22.3076 19.7568 22.3208 19.7648 22.3348C19.83 22.4369 19.9004 22.5357 19.9756 22.6308L19.9884 22.648C20.0757 22.7576 20.1692 22.8622 20.2684 22.9612C20.3545 23.0465 20.4438 23.1265 20.5364 23.2012L5.1996 23.2Z" fill="white"/>
<path d="M13.2 11.2002C13.3061 11.2002 13.4078 11.158 13.4828 11.083L15.0828 9.48299C15.2389 9.32679 15.2389 9.07359 15.0828 8.91739L13.4828 7.31739C13.4078 7.24239 13.3061 7.2002 13.2 7.2002H2C0.895448 7.2002 0 8.09564 0 9.20019C0 10.3047 0.895448 11.2002 2 11.2002H13.2ZM13.0968 8.06259L14.2344 9.20019L13.0968 10.3378L12.8124 9.20019L13.0968 8.06259ZM3.19999 8.00019H12.288L12.088 8.80019H3.99999V9.60019H12.088L12.288 10.4002H3.19999V8.00019ZM0.799998 9.20019C0.799998 8.53744 1.33725 8.00019 2 8.00019H2.39999V10.4002H2C1.33725 10.4002 0.799998 9.86294 0.799998 9.20019Z" fill="white"/>
<path d="M9.19875 17.1998H21.1987C21.4196 17.1998 21.5987 17.0207 21.5987 16.7998V4.7998C21.5987 4.5789 21.4196 4.39985 21.1986 4.3999C21.0926 4.3999 20.9909 4.44205 20.9159 4.517L8.91595 16.517C8.75975 16.6732 8.7598 16.9265 8.91605 17.0827C8.99105 17.1576 9.0927 17.1998 9.19875 17.1998ZM20.7987 5.7654V6.79979H19.9987V7.59979H20.7987V8.39979H19.9987V9.19979H20.7987V9.99978H19.9987V10.7998H20.7987V11.5998H19.9987V12.3998H20.7987V13.1998H19.9987V13.9998H20.7987V14.7998H19.9987V15.5998H20.7987V16.3998H19.9987V15.5998H19.1987V16.3998H18.3987V15.5998H17.5987V16.3998H16.7987V15.5998H15.9987V16.3998H15.1987V15.5998H14.3987V16.3998H13.5987V15.5998H12.7987V16.3998H11.9987V15.5998H11.1987V16.3998H10.1643L20.7987 5.7654Z" fill="white"/>
<path d="M14.9937 14.7997H18.7997C19.0206 14.7997 19.1997 14.6206 19.1997 14.3997V10.5937C19.1996 10.3728 19.0205 10.1938 18.7996 10.1938C18.6935 10.1938 18.5919 10.236 18.5169 10.3109L14.7109 14.1169C14.5547 14.2732 14.5547 14.5264 14.711 14.6826C14.786 14.7576 14.8876 14.7997 14.9937 14.7997ZM18.3997 11.5597V13.9997H15.9597L18.3997 11.5597Z" fill="white"/>
<path d="M18.4004 2.3999H10.4004V3.1999H18.4004V2.3999Z" fill="white"/>
<path d="M19.5992 4H9.19922V4.8H19.5992V4Z" fill="white"/>
<path d="M9.20078 12.3999H6.80078V13.1999H9.20078V12.3999Z" fill="white"/>
<path d="M8.40078 14H6.80078V14.8H8.40078V14Z" fill="white"/>
</svg>
